<?xml version="1.0" encoding="UTF-8" standalone="no"?><!DOCTYPE svg PUBLIC "-//W3C//DTD SVG 1.1//EN" "http://www.w3.org/Graphics/SVG/1.1/DTD/svg11.dtd"><svg width="100%" height="100%" viewBox="0 0 2700 1000" version="1.1" xmlns="http://www.w3.org/2000/svg" xmlns:xlink="http://www.w3.org/1999/xlink" xml:space="preserve" xmlns:serif="http://www.serif.com/" style="fill-rule:evenodd;clip-rule:evenodd;stroke-linejoin:round;stroke-miterlimit:2;"><g><g transform="matrix(1.104225,0,0,1.045978,-72.920188,9.963375)"><rect x="100" y="-53.401" width="442.177" height="1043.537" style="fill:white;fill-opacity:0;"/><g transform="matrix(884.353741,0,0,884.353741,100,800)"><path d="M0.401,0.077L0.25,0.077C0.233,0.077 0.215,0.075 0.198,0.072C0.181,0.068 0.165,0.062 0.149,0.053C0.134,0.044 0.121,0.033 0.11,0.02C0.099,0.007 0.09,-0.008 0.083,-0.024C0.076,-0.04 0.071,-0.057 0.068,-0.074C0.065,-0.091 0.064,-0.109 0.064,-0.126L0.064,-0.554C0.064,-0.571 0.065,-0.589 0.068,-0.606C0.071,-0.623 0.076,-0.64 0.083,-0.656C0.09,-0.672 0.099,-0.687 0.11,-0.7C0.121,-0.713 0.134,-0.724 0.149,-0.733C0.165,-0.742 0.181,-0.748 0.198,-0.752C0.215,-0.755 0.233,-0.757 0.25,-0.757C0.267,-0.757 0.285,-0.755 0.302,-0.752C0.319,-0.748 0.335,-0.742 0.351,-0.733C0.365,-0.724 0.379,-0.713 0.39,-0.7C0.401,-0.687 0.411,-0.672 0.417,-0.656C0.424,-0.64 0.429,-0.623 0.432,-0.606C0.435,-0.589 0.436,-0.571 0.436,-0.554L0.436,-0.224C0.436,-0.213 0.435,-0.202 0.434,-0.191C0.433,-0.179 0.43,-0.169 0.426,-0.158C0.422,-0.147 0.417,-0.137 0.411,-0.128C0.404,-0.119 0.397,-0.111 0.388,-0.104C0.379,-0.098 0.368,-0.094 0.357,-0.091C0.346,-0.088 0.335,-0.087 0.324,-0.087C0.313,-0.087 0.301,-0.088 0.29,-0.091C0.28,-0.094 0.269,-0.098 0.26,-0.104C0.251,-0.111 0.243,-0.119 0.237,-0.128C0.23,-0.137 0.225,-0.147 0.222,-0.158C0.218,-0.169 0.215,-0.179 0.213,-0.191C0.212,-0.202 0.211,-0.213 0.211,-0.224L0.211,-0.415C0.211,-0.426 0.212,-0.438 0.213,-0.449C0.215,-0.46 0.218,-0.471 0.222,-0.482C0.226,-0.493 0.232,-0.503 0.239,-0.512C0.246,-0.521 0.254,-0.529 0.263,-0.535C0.272,-0.541 0.283,-0.545 0.294,-0.548C0.305,-0.551 0.317,-0.552 0.328,-0.552L0.367,-0.552L0.367,-0.554C0.367,-0.565 0.366,-0.577 0.364,-0.588C0.363,-0.599 0.36,-0.609 0.355,-0.62C0.351,-0.63 0.346,-0.639 0.339,-0.648C0.332,-0.658 0.323,-0.665 0.314,-0.671C0.305,-0.677 0.294,-0.681 0.284,-0.683C0.273,-0.686 0.261,-0.687 0.25,-0.687C0.239,-0.687 0.228,-0.686 0.216,-0.683C0.206,-0.681 0.195,-0.677 0.186,-0.671C0.177,-0.665 0.169,-0.658 0.162,-0.648C0.154,-0.639 0.149,-0.63 0.144,-0.62C0.14,-0.609 0.137,-0.599 0.136,-0.588C0.134,-0.577 0.133,-0.565 0.133,-0.554L0.133,-0.126C0.133,-0.115 0.134,-0.103 0.136,-0.092C0.137,-0.082 0.14,-0.071 0.144,-0.06C0.149,-0.05 0.154,-0.041 0.162,-0.032C0.169,-0.023 0.177,-0.015 0.186,-0.009C0.195,-0.004 0.206,0 0.216,0.003C0.228,0.006 0.239,0.007 0.25,0.007L0.401,0.007L0.401,0.077ZM0.324,-0.149C0.332,-0.149 0.339,-0.152 0.346,-0.158C0.352,-0.163 0.356,-0.17 0.359,-0.177C0.362,-0.184 0.364,-0.192 0.365,-0.2C0.366,-0.208 0.367,-0.216 0.367,-0.224L0.367,-0.49L0.328,-0.49C0.32,-0.49 0.312,-0.487 0.305,-0.482C0.298,-0.478 0.293,-0.471 0.289,-0.464C0.286,-0.456 0.284,-0.448 0.283,-0.44C0.282,-0.431 0.281,-0.423 0.281,-0.415L0.281,-0.224C0.281,-0.216 0.282,-0.208 0.283,-0.2C0.284,-0.192 0.286,-0.184 0.288,-0.177C0.291,-0.17 0.296,-0.163 0.302,-0.158C0.309,-0.152 0.316,-0.149 0.324,-0.149Z" style="fill:white;fill-rule:nonzero;"/></g></g><g transform="matrix(1.104225,0,0,1.045978,363.812207,16.438476)"><rect x="100" y="-53.401" width="442.177" height="1043.537" style="fill:white;fill-opacity:0;"/><g transform="matrix(884.353741,0,0,884.353741,100,800)"><path d="M0.436,0.07L0.064,0.07L0.064,-0.095L0.138,-0.095L0.138,-0L0.362,-0L0.362,-0.095L0.436,-0.095L0.436,0.07Z" style="fill:white;fill-rule:nonzero;"/></g></g></g><g transform="matrix(1.160184,0,0,1.160184,-230.554741,-167.151684)"><rect x="1000" y="112.495" width="1463.868" height="987.415" style="fill:white;fill-opacity:0;"/><g transform="matrix(836.792501,0,0,836.792501,1000,920)"><path d="M0.072,-0L0.072,-0.735L0.436,-0.735L0.436,-0.665L0.15,-0.665L0.15,-0.417L0.38,-0.417L0.38,-0.347L0.15,-0.347L0.15,-0.07L0.436,-0.07L0.436,-0L0.072,-0Z" style="fill:white;fill-rule:nonzero;"/></g><g transform="matrix(836.792501,0,0,836.792501,1353.126435,920)"><path d="M0.219,0.008C0.202,0.008 0.186,0.006 0.171,0.001C0.155,-0.004 0.141,-0.011 0.128,-0.022C0.115,-0.033 0.105,-0.045 0.097,-0.059C0.088,-0.073 0.082,-0.088 0.076,-0.104C0.072,-0.119 0.068,-0.135 0.067,-0.151C0.065,-0.168 0.064,-0.184 0.064,-0.2L0.064,-0.52L0.142,-0.52L0.142,-0.2C0.142,-0.189 0.143,-0.177 0.144,-0.167C0.145,-0.155 0.148,-0.145 0.151,-0.135C0.154,-0.124 0.159,-0.114 0.166,-0.105C0.172,-0.096 0.179,-0.088 0.188,-0.081C0.197,-0.074 0.206,-0.07 0.217,-0.067C0.228,-0.064 0.239,-0.062 0.25,-0.062C0.261,-0.062 0.272,-0.064 0.283,-0.067C0.294,-0.07 0.303,-0.074 0.312,-0.081C0.321,-0.088 0.328,-0.096 0.335,-0.105C0.341,-0.114 0.346,-0.124 0.349,-0.135C0.352,-0.145 0.355,-0.155 0.356,-0.167C0.357,-0.177 0.358,-0.189 0.358,-0.2L0.358,-0.52L0.436,-0.52L0.436,-0L0.358,-0L0.358,-0.095C0.353,-0.08 0.346,-0.066 0.338,-0.053C0.329,-0.04 0.319,-0.028 0.306,-0.019C0.294,-0.01 0.28,-0.003 0.265,0.002C0.25,0.006 0.234,0.008 0.219,0.008Z" style="fill:white;fill-rule:nonzero;"/></g><g transform="matrix(845.160426,0,0,836.792501,1687.843436,920)"><path d="M0.124,-0L0.124,-0.52L0.202,-0.52L0.202,-0.408C0.206,-0.423 0.212,-0.437 0.218,-0.452C0.226,-0.467 0.234,-0.48 0.245,-0.491C0.256,-0.503 0.269,-0.512 0.284,-0.518C0.298,-0.525 0.314,-0.528 0.33,-0.528C0.342,-0.528 0.354,-0.526 0.366,-0.523C0.379,-0.521 0.39,-0.515 0.4,-0.508C0.41,-0.501 0.419,-0.492 0.425,-0.481C0.432,-0.471 0.438,-0.46 0.442,-0.449C0.445,-0.437 0.448,-0.425 0.449,-0.413C0.45,-0.4 0.451,-0.388 0.451,-0.375L0.373,-0.375C0.373,-0.385 0.372,-0.395 0.37,-0.405C0.369,-0.414 0.365,-0.423 0.36,-0.432C0.355,-0.441 0.349,-0.447 0.34,-0.452C0.331,-0.456 0.321,-0.458 0.311,-0.458C0.298,-0.458 0.285,-0.455 0.273,-0.45C0.26,-0.444 0.25,-0.436 0.241,-0.426C0.233,-0.416 0.226,-0.405 0.221,-0.393C0.216,-0.38 0.212,-0.367 0.209,-0.354C0.206,-0.341 0.205,-0.328 0.204,-0.315C0.203,-0.302 0.202,-0.289 0.202,-0.276L0.202,-0L0.124,-0Z" style="fill:white;fill-rule:nonzero;"/></g><g transform="matrix(811.688726,0,0,836.792501,2058.023702,920)"><path d="M0.25,0.008C0.232,0.008 0.214,0.006 0.197,0.003C0.179,-0.001 0.162,-0.007 0.146,-0.016C0.131,-0.025 0.117,-0.036 0.104,-0.05C0.092,-0.063 0.082,-0.078 0.075,-0.095C0.068,-0.111 0.063,-0.128 0.06,-0.146C0.057,-0.164 0.056,-0.182 0.056,-0.2L0.056,-0.32C0.056,-0.338 0.057,-0.356 0.06,-0.374C0.063,-0.392 0.068,-0.409 0.075,-0.425C0.082,-0.442 0.092,-0.457 0.104,-0.471C0.117,-0.484 0.131,-0.495 0.146,-0.504C0.162,-0.513 0.179,-0.519 0.197,-0.522C0.214,-0.526 0.232,-0.528 0.25,-0.528C0.268,-0.528 0.286,-0.526 0.303,-0.522C0.321,-0.519 0.338,-0.513 0.353,-0.504C0.369,-0.495 0.383,-0.484 0.396,-0.471C0.408,-0.457 0.418,-0.442 0.425,-0.425C0.432,-0.409 0.437,-0.392 0.44,-0.374C0.443,-0.356 0.444,-0.338 0.444,-0.32L0.444,-0.225L0.134,-0.225L0.134,-0.2C0.134,-0.189 0.135,-0.177 0.136,-0.166C0.137,-0.155 0.14,-0.144 0.144,-0.133C0.148,-0.122 0.153,-0.112 0.161,-0.103C0.168,-0.094 0.176,-0.086 0.185,-0.08C0.194,-0.073 0.205,-0.069 0.216,-0.066C0.227,-0.063 0.239,-0.062 0.25,-0.062C0.263,-0.062 0.277,-0.063 0.289,-0.066C0.302,-0.068 0.315,-0.073 0.326,-0.08C0.337,-0.087 0.347,-0.096 0.353,-0.107C0.36,-0.119 0.364,-0.132 0.364,-0.145L0.442,-0.145C0.442,-0.13 0.44,-0.115 0.434,-0.1C0.429,-0.085 0.423,-0.072 0.414,-0.06C0.405,-0.047 0.394,-0.036 0.381,-0.028C0.368,-0.018 0.355,-0.011 0.341,-0.006C0.326,-0.001 0.311,0.003 0.296,0.005C0.281,0.007 0.265,0.008 0.25,0.008ZM0.366,-0.295L0.366,-0.32C0.366,-0.331 0.365,-0.343 0.364,-0.354C0.363,-0.365 0.36,-0.376 0.356,-0.387C0.352,-0.398 0.347,-0.408 0.34,-0.417C0.333,-0.426 0.324,-0.434 0.315,-0.441C0.306,-0.447 0.295,-0.451 0.284,-0.454C0.273,-0.457 0.261,-0.458 0.25,-0.458C0.239,-0.458 0.227,-0.457 0.216,-0.454C0.205,-0.451 0.194,-0.447 0.185,-0.441C0.176,-0.434 0.168,-0.426 0.161,-0.417C0.153,-0.408 0.148,-0.398 0.144,-0.387C0.14,-0.376 0.137,-0.365 0.136,-0.354C0.135,-0.343 0.134,-0.331 0.134,-0.32L0.134,-0.295L0.366,-0.295Z" style="fill:white;fill-rule:nonzero;"/></g></g></svg>