<?xml version="1.0" encoding="UTF-8" standalone="no"?><!DOCTYPE svg PUBLIC "-//W3C//DTD SVG 1.1//EN" "http://www.w3.org/Graphics/SVG/1.1/DTD/svg11.dtd"><svg width="100%" height="100%" viewBox="0 0 2700 1000" version="1.1" xmlns="http://www.w3.org/2000/svg" xmlns:xlink="http://www.w3.org/1999/xlink" xml:space="preserve" xmlns:serif="http://www.serif.com/" style="fill-rule:evenodd;clip-rule:evenodd;stroke-linejoin:round;stroke-miterlimit:2;"><g id="Light"><g transform="matrix(1.160184,0,0,1.160184,-230.554741,-167.151684)"><rect x="1000" y="112.495236666781" width="1463.868065160483" height="987.415151018858" style="fill:white;fill-opacity:0;"/><g transform="matrix(836.792501,0,0,836.792501,1000,920)"><path d="M0.072,-0L0.072,-0.735L0.436,-0.735L0.436,-0.665L0.15,-0.665L0.15,-0.417L0.38,-0.417L0.38,-0.347L0.15,-0.347L0.15,-0.07L0.436,-0.07L0.436,-0L0.072,-0Z" style="fill:rgb(7,7,7);fill-rule:nonzero;"/></g><g transform="matrix(836.792501,0,0,836.792501,1353.126435,920)"><path d="M0.219,0.008C0.202333333333,0.008 0.186166666667,0.005666666667 0.1705,0.001C0.154833333333,-0.003666666667 0.140666666667,-0.011333333333 0.128,-0.022C0.115333333333,-0.032666666667 0.104833333333,-0.045 0.0965,-0.059C0.088166666667,-0.073 0.0815,-0.087833333333 0.0765,-0.1035C0.0715,-0.119166666667 0.068166666667,-0.135166666667 0.0665,-0.1515C0.064833333333,-0.167833333333 0.064,-0.184 0.064,-0.2L0.064,-0.52L0.142,-0.52L0.142,-0.2C0.142,-0.188666666667 0.142666666667,-0.1775 0.144,-0.1665C0.145333333333,-0.1555 0.147666666667,-0.144833333333 0.151,-0.1345C0.154333333333,-0.124166666667 0.159166666667,-0.114333333333 0.1655,-0.105C0.171833333333,-0.095666666667 0.179333333333,-0.087666666667 0.188,-0.081C0.196666666667,-0.074333333333 0.206333333333,-0.0695 0.217,-0.0665C0.227666666667,-0.0635 0.238666666667,-0.062 0.25,-0.062C0.261333333333,-0.062 0.272333333333,-0.0635 0.283,-0.0665C0.293666666667,-0.0695 0.303333333333,-0.074333333333 0.312,-0.081C0.320666666667,-0.087666666667 0.328166666667,-0.095666666667 0.3345,-0.105C0.340833333333,-0.114333333333 0.345666666667,-0.124166666667 0.349,-0.1345C0.352333333333,-0.144833333333 0.354666666667,-0.1555 0.356,-0.1665C0.357333333333,-0.1775 0.358,-0.188666666667 0.358,-0.2L0.358,-0.52L0.436,-0.52L0.436,-0L0.358,-0L0.358,-0.095C0.352666666667,-0.080333333333 0.345833333333,-0.066333333333 0.3375,-0.053C0.329166666667,-0.039666666667 0.318833333333,-0.028333333333 0.3065,-0.019C0.294166666667,-0.009666666667 0.280333333333,-0.002833333333 0.265,0.0015C0.249666666667,0.005833333333 0.234333333333,0.008 0.219,0.008Z" style="fill:rgb(7,7,7);fill-rule:nonzero;"/></g><g transform="matrix(845.160426,0,0,836.792501,1687.843436,920)"><path d="M0.124,-0L0.124,-0.52L0.202,-0.52L0.202,-0.408C0.206,-0.422666666667 0.2115,-0.437333333333 0.2185,-0.452C0.2255,-0.466666666667 0.234333333333,-0.479833333333 0.245,-0.4915C0.255666666667,-0.503166666667 0.2685,-0.512166666667 0.2835,-0.5185C0.2985,-0.524833333333 0.314,-0.528 0.33,-0.528C0.342,-0.528 0.354166666667,-0.5265 0.3665,-0.5235C0.378833333333,-0.5205 0.39,-0.515333333333 0.4,-0.508C0.41,-0.500666666667 0.4185,-0.491833333333 0.4255,-0.4815C0.4325,-0.471166666667 0.437833333333,-0.460166666667 0.4415,-0.4485C0.445166666667,-0.436833333333 0.447666666667,-0.424833333333 0.449,-0.4125C0.450333333333,-0.400166666667 0.451,-0.387666666667 0.451,-0.375L0.373,-0.375C0.373,-0.385 0.372166666667,-0.394833333333 0.3705,-0.4045C0.368833333333,-0.414166666667 0.3655,-0.423333333333 0.3605,-0.432C0.3555,-0.440666666667 0.3485,-0.447166666667 0.3395,-0.4515C0.3305,-0.455833333333 0.321,-0.458 0.311,-0.458C0.297666666667,-0.458 0.284833333333,-0.455166666667 0.2725,-0.4495C0.260166666667,-0.443833333333 0.249833333333,-0.436 0.2415,-0.426C0.233166666667,-0.416 0.226333333333,-0.404833333333 0.221,-0.3925C0.215666666667,-0.380166666667 0.211666666667,-0.3675 0.209,-0.3545C0.206333333333,-0.3415 0.2045,-0.328333333333 0.2035,-0.315C0.2025,-0.301666666667 0.202,-0.288666666667 0.202,-0.276L0.202,-0L0.124,-0Z" style="fill:rgb(7,7,7);fill-rule:nonzero;"/></g><g transform="matrix(811.688726,0,0,836.792501,2058.023702,920)"><path d="M0.25,0.008C0.232,0.008 0.214166666667,0.006166666667 0.1965,0.0025C0.178833333333,-0.001166666667 0.162166666667,-0.007333333333 0.1465,-0.016C0.130833333333,-0.024666666667 0.116833333333,-0.035833333333 0.1045,-0.0495C0.092166666667,-0.063166666667 0.082333333333,-0.078166666667 0.075,-0.0945C0.067666666667,-0.110833333333 0.062666666667,-0.128 0.06,-0.146C0.057333333333,-0.164 0.056,-0.182 0.056,-0.2L0.056,-0.32C0.056,-0.338 0.057333333333,-0.356 0.06,-0.374C0.062666666667,-0.392 0.067666666667,-0.409166666667 0.075,-0.4255C0.082333333333,-0.441833333333 0.092166666667,-0.456833333333 0.1045,-0.4705C0.116833333333,-0.484166666667 0.130833333333,-0.495333333333 0.1465,-0.504C0.162166666667,-0.512666666667 0.178833333333,-0.518833333333 0.1965,-0.5225C0.214166666667,-0.526166666667 0.232,-0.528 0.25,-0.528C0.268,-0.528 0.285833333333,-0.526166666667 0.3035,-0.5225C0.321166666667,-0.518833333333 0.337833333333,-0.512666666667 0.3535,-0.504C0.369166666667,-0.495333333333 0.383166666667,-0.484166666667 0.3955,-0.4705C0.407833333333,-0.456833333333 0.417666666667,-0.441833333333 0.425,-0.4255C0.432333333333,-0.409166666667 0.437333333333,-0.392 0.44,-0.374C0.442666666667,-0.356 0.444,-0.338 0.444,-0.32L0.444,-0.225L0.134,-0.225L0.134,-0.2C0.134,-0.188666666667 0.134666666667,-0.177333333333 0.136,-0.166C0.137333333333,-0.154666666667 0.14,-0.143666666667 0.144,-0.133C0.148,-0.122333333333 0.1535,-0.112333333333 0.1605,-0.103C0.1675,-0.093666666667 0.175666666667,-0.085833333333 0.185,-0.0795C0.194333333333,-0.073166666667 0.204666666667,-0.068666666667 0.216,-0.066C0.227333333333,-0.063333333333 0.238666666667,-0.062 0.25,-0.062C0.263333333333,-0.062 0.2765,-0.063166666667 0.2895,-0.0655C0.3025,-0.067833333333 0.314666666667,-0.0725 0.326,-0.0795C0.337333333333,-0.0865 0.3465,-0.095833333333 0.3535,-0.1075C0.3605,-0.119166666667 0.364,-0.131666666667 0.364,-0.145L0.442,-0.145C0.442,-0.129666666667 0.4395,-0.114666666667 0.4345,-0.1C0.4295,-0.085333333333 0.4225,-0.071833333333 0.4135,-0.0595C0.4045,-0.047166666667 0.393666666667,-0.0365 0.381,-0.0275C0.368333333333,-0.0185 0.354833333333,-0.011333333333 0.3405,-0.006C0.326166666667,-0.000666666667 0.311333333333,0.003 0.296,0.005C0.280666666667,0.007 0.265333333333,0.008 0.25,0.008ZM0.366,-0.295L0.366,-0.32C0.366,-0.331333333333 0.365333333333,-0.342666666667 0.364,-0.354C0.362666666667,-0.365333333333 0.36,-0.376333333333 0.356,-0.387C0.352,-0.397666666667 0.3465,-0.407666666667 0.3395,-0.417C0.3325,-0.426333333333 0.324333333333,-0.434166666667 0.315,-0.4405C0.305666666667,-0.446833333333 0.295333333333,-0.451333333333 0.284,-0.454C0.272666666667,-0.456666666667 0.261333333333,-0.458 0.25,-0.458C0.238666666667,-0.458 0.227333333333,-0.456666666667 0.216,-0.454C0.204666666667,-0.451333333333 0.194333333333,-0.446833333333 0.185,-0.4405C0.175666666667,-0.434166666667 0.1675,-0.426333333333 0.1605,-0.417C0.1535,-0.407666666667 0.148,-0.397666666667 0.144,-0.387C0.14,-0.376333333333 0.137333333333,-0.365333333333 0.136,-0.354C0.134666666667,-0.342666666667 0.134,-0.331333333333 0.134,-0.32L0.134,-0.295L0.366,-0.295Z" style="fill:rgb(7,7,7);fill-rule:nonzero;"/></g></g><g><g transform="matrix(1.104225,0,0,1.045978,-72.920188,9.963375)"><rect x="100" y="-53.401360544218" width="442.176870748299" height="1043.537414965986" style="fill:white;fill-opacity:0;"/><g transform="matrix(884.353741,0,0,884.353741,100,800)"><path d="M0.401,0.077L0.25,0.077C0.232666666667,0.077 0.215333333333,0.075166666667 0.198,0.0715C0.180666666667,0.067833333333 0.1645,0.061666666667 0.1495,0.053C0.1345,0.044333333333 0.121333333333,0.033333333333 0.11,0.02C0.098666666667,0.006666666667 0.0895,-0.008 0.0825,-0.024C0.0755,-0.04 0.070666666667,-0.056666666667 0.068,-0.074C0.065333333333,-0.091333333333 0.064,-0.108666666667 0.064,-0.126L0.064,-0.554C0.064,-0.571333333333 0.065333333333,-0.588666666667 0.068,-0.606C0.070666666667,-0.623333333333 0.0755,-0.64 0.0825,-0.656C0.0895,-0.672 0.098666666667,-0.686666666667 0.11,-0.7C0.121333333333,-0.713333333333 0.1345,-0.724333333333 0.1495,-0.733C0.1645,-0.741666666667 0.180666666667,-0.747833333333 0.198,-0.7515C0.215333333333,-0.755166666667 0.232666666667,-0.757 0.25,-0.757C0.267333333333,-0.757 0.284666666667,-0.755166666667 0.302,-0.7515C0.319333333333,-0.747833333333 0.3355,-0.741666666667 0.3505,-0.733C0.3655,-0.724333333333 0.378666666667,-0.713333333333 0.39,-0.7C0.401333333333,-0.686666666667 0.4105,-0.672 0.4175,-0.656C0.4245,-0.64 0.429333333333,-0.623333333333 0.432,-0.606C0.434666666667,-0.588666666667 0.436,-0.571333333333 0.436,-0.554L0.436,-0.224C0.436,-0.212666666667 0.435333333333,-0.2015 0.434,-0.1905C0.432666666667,-0.1795 0.43,-0.168666666667 0.426,-0.158C0.422,-0.147333333333 0.416833333333,-0.137333333333 0.4105,-0.128C0.404166666667,-0.118666666667 0.3965,-0.110833333333 0.3875,-0.1045C0.3785,-0.098166666667 0.368333333333,-0.093666666667 0.357,-0.091C0.345666666667,-0.088333333333 0.334666666667,-0.087 0.324,-0.087C0.312666666667,-0.087 0.3015,-0.088333333333 0.2905,-0.091C0.2795,-0.093666666667 0.269333333333,-0.098166666667 0.26,-0.1045C0.250666666667,-0.110833333333 0.242833333333,-0.118666666667 0.2365,-0.128C0.230166666667,-0.137333333333 0.225166666667,-0.147333333333 0.2215,-0.158C0.217833333333,-0.168666666667 0.215166666667,-0.1795 0.2135,-0.1905C0.211833333333,-0.2015 0.211,-0.212666666667 0.211,-0.224L0.211,-0.415C0.211,-0.426333333333 0.211833333333,-0.437666666667 0.2135,-0.449C0.215166666667,-0.460333333333 0.218,-0.471333333333 0.222,-0.482C0.226,-0.492666666667 0.2315,-0.502666666667 0.2385,-0.512C0.2455,-0.521333333333 0.253666666667,-0.529 0.263,-0.535C0.272333333333,-0.541 0.282666666667,-0.545333333333 0.294,-0.548C0.305333333333,-0.550666666667 0.316666666667,-0.552 0.328,-0.552L0.367,-0.552L0.367,-0.554C0.367,-0.565333333333 0.366166666667,-0.5765 0.3645,-0.5875C0.362833333333,-0.5985 0.359833333333,-0.609166666667 0.3555,-0.6195C0.351166666667,-0.629833333333 0.3455,-0.6395 0.3385,-0.6485C0.3315,-0.6575 0.323333333333,-0.665 0.314,-0.671C0.304666666667,-0.677 0.2945,-0.681166666667 0.2835,-0.6835C0.2725,-0.685833333333 0.261333333333,-0.687 0.25,-0.687C0.238666666667,-0.687 0.2275,-0.685833333333 0.2165,-0.6835C0.2055,-0.681166666667 0.195333333333,-0.677 0.186,-0.671C0.176666666667,-0.665 0.1685,-0.6575 0.1615,-0.6485C0.1545,-0.6395 0.148833333333,-0.629833333333 0.1445,-0.6195C0.140166666667,-0.609166666667 0.137166666667,-0.5985 0.1355,-0.5875C0.133833333333,-0.5765 0.133,-0.565333333333 0.133,-0.554L0.133,-0.126C0.133,-0.114666666667 0.133833333333,-0.1035 0.1355,-0.0925C0.137166666667,-0.0815 0.140166666667,-0.070833333333 0.1445,-0.0605C0.148833333333,-0.050166666667 0.1545,-0.0405 0.1615,-0.0315C0.1685,-0.0225 0.176666666667,-0.015166666667 0.186,-0.0095C0.195333333333,-0.003833333333 0.2055,0.000333333333 0.2165,0.003C0.2275,0.005666666667 0.238666666667,0.007 0.25,0.007L0.401,0.007L0.401,0.077ZM0.324,-0.149C0.332,-0.149 0.339166666667,-0.151833333333 0.3455,-0.1575C0.351833333333,-0.163166666667 0.3565,-0.169666666667 0.3595,-0.177C0.3625,-0.184333333333 0.3645,-0.192 0.3655,-0.2C0.3665,-0.208 0.367,-0.216 0.367,-0.224L0.367,-0.49L0.328,-0.49C0.32,-0.49 0.3125,-0.4875 0.3055,-0.4825C0.2985,-0.4775 0.293166666667,-0.471166666667 0.2895,-0.4635C0.285833333333,-0.455833333333 0.2835,-0.447833333333 0.2825,-0.4395C0.2815,-0.431166666667 0.281,-0.423 0.281,-0.415L0.281,-0.224C0.281,-0.216 0.2815,-0.208 0.2825,-0.2C0.2835,-0.192 0.2855,-0.184333333333 0.2885,-0.177C0.2915,-0.169666666667 0.296166666667,-0.163166666667 0.3025,-0.1575C0.308833333333,-0.151833333333 0.316,-0.149 0.324,-0.149Z" style="fill:rgb(48,80,64);fill-rule:nonzero;"/></g></g><g transform="matrix(1.104225,0,0,1.045978,363.812207,16.438476)"><rect x="100" y="-53.401360544218" width="442.176870748299" height="1043.537414965986" style="fill:white;fill-opacity:0;"/><g transform="matrix(884.353741,0,0,884.353741,100,800)"><path d="M0.436,0.07L0.064,0.07L0.064,-0.095L0.138,-0.095L0.138,-0L0.362,-0L0.362,-0.095L0.436,-0.095L0.436,0.07Z" style="fill:rgb(48,80,64);fill-rule:nonzero;"/></g></g></g></g></svg>