<?xml version="1.0" encoding="UTF-8" standalone="no"?><!DOCTYPE svg PUBLIC "-//W3C//DTD SVG 1.1//EN" "http://www.w3.org/Graphics/SVG/1.1/DTD/svg11.dtd"><svg width="100%" height="100%" viewBox="0 0 1000 1000" version="1.1" xmlns="http://www.w3.org/2000/svg" xmlns:xlink="http://www.w3.org/1999/xlink" xml:space="preserve" xmlns:serif="http://www.serif.com/" style="fill-rule:evenodd;clip-rule:evenodd;stroke-linejoin:round;stroke-miterlimit:2;"><g><g transform="matrix(1.104225,0,0,1.104225,-72.920188,-40.600939)"><rect x="100" y="-53.401" width="442.177" height="1043.537" style="fill:white;fill-opacity:0;"/><g transform="matrix(884.353741,0,0,884.353741,100,800)"><path d="M0.401,0.077L0.25,0.077C0.233,0.077 0.215,0.075 0.198,0.072C0.181,0.068 0.165,0.062 0.149,0.053C0.134,0.044 0.121,0.033 0.11,0.02C0.099,0.007 0.09,-0.008 0.083,-0.024C0.076,-0.04 0.071,-0.057 0.068,-0.074C0.065,-0.091 0.064,-0.109 0.064,-0.126L0.064,-0.554C0.064,-0.571 0.065,-0.589 0.068,-0.606C0.071,-0.623 0.076,-0.64 0.083,-0.656C0.09,-0.672 0.099,-0.687 0.11,-0.7C0.121,-0.713 0.134,-0.724 0.149,-0.733C0.165,-0.742 0.181,-0.748 0.198,-0.752C0.215,-0.755 0.233,-0.757 0.25,-0.757C0.267,-0.757 0.285,-0.755 0.302,-0.752C0.319,-0.748 0.335,-0.742 0.351,-0.733C0.365,-0.724 0.379,-0.713 0.39,-0.7C0.401,-0.687 0.411,-0.672 0.417,-0.656C0.424,-0.64 0.429,-0.623 0.432,-0.606C0.435,-0.589 0.436,-0.571 0.436,-0.554L0.436,-0.224C0.436,-0.213 0.435,-0.202 0.434,-0.191C0.433,-0.179 0.43,-0.169 0.426,-0.158C0.422,-0.147 0.417,-0.137 0.411,-0.128C0.404,-0.119 0.397,-0.111 0.388,-0.104C0.379,-0.098 0.368,-0.094 0.357,-0.091C0.346,-0.088 0.335,-0.087 0.324,-0.087C0.313,-0.087 0.301,-0.088 0.29,-0.091C0.28,-0.094 0.269,-0.098 0.26,-0.104C0.251,-0.111 0.243,-0.119 0.237,-0.128C0.23,-0.137 0.225,-0.147 0.222,-0.158C0.218,-0.169 0.215,-0.179 0.213,-0.191C0.212,-0.202 0.211,-0.213 0.211,-0.224L0.211,-0.415C0.211,-0.426 0.212,-0.438 0.213,-0.449C0.215,-0.46 0.218,-0.471 0.222,-0.482C0.226,-0.493 0.232,-0.503 0.239,-0.512C0.246,-0.521 0.254,-0.529 0.263,-0.535C0.272,-0.541 0.283,-0.545 0.294,-0.548C0.305,-0.551 0.317,-0.552 0.328,-0.552L0.367,-0.552L0.367,-0.554C0.367,-0.565 0.366,-0.577 0.364,-0.588C0.363,-0.599 0.36,-0.609 0.355,-0.62C0.351,-0.63 0.346,-0.639 0.339,-0.648C0.332,-0.658 0.323,-0.665 0.314,-0.671C0.305,-0.677 0.294,-0.681 0.284,-0.683C0.273,-0.686 0.261,-0.687 0.25,-0.687C0.239,-0.687 0.228,-0.686 0.216,-0.683C0.206,-0.681 0.195,-0.677 0.186,-0.671C0.177,-0.665 0.169,-0.658 0.162,-0.648C0.154,-0.639 0.149,-0.63 0.144,-0.62C0.14,-0.609 0.137,-0.599 0.136,-0.588C0.134,-0.577 0.133,-0.565 0.133,-0.554L0.133,-0.126C0.133,-0.115 0.134,-0.103 0.136,-0.092C0.137,-0.082 0.14,-0.071 0.144,-0.06C0.149,-0.05 0.154,-0.041 0.162,-0.032C0.169,-0.023 0.177,-0.015 0.186,-0.009C0.195,-0.004 0.206,0 0.216,0.003C0.228,0.006 0.239,0.007 0.25,0.007L0.401,0.007L0.401,0.077ZM0.324,-0.149C0.332,-0.149 0.339,-0.152 0.346,-0.158C0.352,-0.163 0.356,-0.17 0.359,-0.177C0.362,-0.184 0.364,-0.192 0.365,-0.2C0.366,-0.208 0.367,-0.216 0.367,-0.224L0.367,-0.49L0.328,-0.49C0.32,-0.49 0.312,-0.487 0.305,-0.482C0.298,-0.478 0.293,-0.471 0.289,-0.464C0.286,-0.456 0.284,-0.448 0.283,-0.44C0.282,-0.431 0.281,-0.423 0.281,-0.415L0.281,-0.224C0.281,-0.216 0.282,-0.208 0.283,-0.2C0.284,-0.192 0.286,-0.184 0.288,-0.177C0.291,-0.17 0.296,-0.163 0.302,-0.158C0.309,-0.152 0.316,-0.149 0.324,-0.149Z" style="fill-rule:nonzero;"/></g></g><g transform="matrix(1.104225,0,0,1.104225,363.812207,-33.765258)"><rect x="100" y="-53.401" width="442.177" height="1043.537" style="fill:white;fill-opacity:0;"/><g transform="matrix(884.353741,0,0,884.353741,100,800)"><path d="M0.436,0.07L0.064,0.07L0.064,-0.095L0.138,-0.095L0.138,-0L0.362,-0L0.362,-0.095L0.436,-0.095L0.436,0.07Z" style="fill-rule:nonzero;"/></g></g></g></svg>