<?xml version="1.0" encoding="UTF-8" standalone="no"?><!DOCTYPE svg PUBLIC "-//W3C//DTD SVG 1.1//EN" "http://www.w3.org/Graphics/SVG/1.1/DTD/svg11.dtd"><svg width="100%" height="100%" viewBox="0 0 1000 1000" version="1.1" xmlns="http://www.w3.org/2000/svg" xmlns:xlink="http://www.w3.org/1999/xlink" xml:space="preserve" xmlns:serif="http://www.serif.com/" style="fill-rule:evenodd;clip-rule:evenodd;stroke-linejoin:round;stroke-miterlimit:2;"><g><g transform="matrix(1.104225,0,0,1.104225,-72.920188,-40.600939)"><rect x="100" y="-53.4014" width="442.1769" height="1043.5374" style="fill:white;fill-opacity:0;"/><g transform="matrix(884.353741,0,0,884.353741,100,800)"><path d="M0.401,0.077L0.25,0.077C0.2327,0.077 0.2153,0.0752 0.198,0.0715C0.1807,0.0678 0.1645,0.0617 0.1495,0.053C0.1345,0.0443 0.1213,0.0333 0.11,0.02C0.0987,0.0067 0.0895,-0.008 0.0825,-0.024C0.0755,-0.04 0.0707,-0.0567 0.068,-0.074C0.0653,-0.0913 0.064,-0.1087 0.064,-0.126L0.064,-0.554C0.064,-0.5713 0.0653,-0.5887 0.068,-0.606C0.0707,-0.6233 0.0755,-0.64 0.0825,-0.656C0.0895,-0.672 0.0987,-0.6867 0.11,-0.7C0.1213,-0.7133 0.1345,-0.7243 0.1495,-0.733C0.1645,-0.7417 0.1807,-0.7478 0.198,-0.7515C0.2153,-0.7552 0.2327,-0.757 0.25,-0.757C0.2673,-0.757 0.2847,-0.7552 0.302,-0.7515C0.3193,-0.7478 0.3355,-0.7417 0.3505,-0.733C0.3655,-0.7243 0.3787,-0.7133 0.39,-0.7C0.4013,-0.6867 0.4105,-0.672 0.4175,-0.656C0.4245,-0.64 0.4293,-0.6233 0.432,-0.606C0.4347,-0.5887 0.436,-0.5713 0.436,-0.554L0.436,-0.224C0.436,-0.2127 0.4353,-0.2015 0.434,-0.1905C0.4327,-0.1795 0.43,-0.1687 0.426,-0.158C0.422,-0.1473 0.4168,-0.1373 0.4105,-0.128C0.4042,-0.1187 0.3965,-0.1108 0.3875,-0.1045C0.3785,-0.0982 0.3683,-0.0937 0.357,-0.091C0.3457,-0.0883 0.3347,-0.087 0.324,-0.087C0.3127,-0.087 0.3015,-0.0883 0.2905,-0.091C0.2795,-0.0937 0.2693,-0.0982 0.26,-0.1045C0.2507,-0.1108 0.2428,-0.1187 0.2365,-0.128C0.2302,-0.1373 0.2252,-0.1473 0.2215,-0.158C0.2178,-0.1687 0.2152,-0.1795 0.2135,-0.1905C0.2118,-0.2015 0.211,-0.2127 0.211,-0.224L0.211,-0.415C0.211,-0.4263 0.2118,-0.4377 0.2135,-0.449C0.2152,-0.4603 0.218,-0.4713 0.222,-0.482C0.226,-0.4927 0.2315,-0.5027 0.2385,-0.512C0.2455,-0.5213 0.2537,-0.529 0.263,-0.535C0.2723,-0.541 0.2827,-0.5453 0.294,-0.548C0.3053,-0.5507 0.3167,-0.552 0.328,-0.552L0.367,-0.552L0.367,-0.554C0.367,-0.5653 0.3662,-0.5765 0.3645,-0.5875C0.3628,-0.5985 0.3598,-0.6092 0.3555,-0.6195C0.3512,-0.6298 0.3455,-0.6395 0.3385,-0.6485C0.3315,-0.6575 0.3233,-0.665 0.314,-0.671C0.3047,-0.677 0.2945,-0.6812 0.2835,-0.6835C0.2725,-0.6858 0.2613,-0.687 0.25,-0.687C0.2387,-0.687 0.2275,-0.6858 0.2165,-0.6835C0.2055,-0.6812 0.1953,-0.677 0.186,-0.671C0.1767,-0.665 0.1685,-0.6575 0.1615,-0.6485C0.1545,-0.6395 0.1488,-0.6298 0.1445,-0.6195C0.1402,-0.6092 0.1372,-0.5985 0.1355,-0.5875C0.1338,-0.5765 0.133,-0.5653 0.133,-0.554L0.133,-0.126C0.133,-0.1147 0.1338,-0.1035 0.1355,-0.0925C0.1372,-0.0815 0.1402,-0.0708 0.1445,-0.0605C0.1488,-0.0502 0.1545,-0.0405 0.1615,-0.0315C0.1685,-0.0225 0.1767,-0.0152 0.186,-0.0095C0.1953,-0.0038 0.2055,0.0003 0.2165,0.003C0.2275,0.0057 0.2387,0.007 0.25,0.007L0.401,0.007L0.401,0.077ZM0.324,-0.149C0.332,-0.149 0.3392,-0.1518 0.3455,-0.1575C0.3518,-0.1632 0.3565,-0.1697 0.3595,-0.177C0.3625,-0.1843 0.3645,-0.192 0.3655,-0.2C0.3665,-0.208 0.367,-0.216 0.367,-0.224L0.367,-0.49L0.328,-0.49C0.32,-0.49 0.3125,-0.4875 0.3055,-0.4825C0.2985,-0.4775 0.2932,-0.4712 0.2895,-0.4635C0.2858,-0.4558 0.2835,-0.4478 0.2825,-0.4395C0.2815,-0.4312 0.281,-0.423 0.281,-0.415L0.281,-0.224C0.281,-0.216 0.2815,-0.208 0.2825,-0.2C0.2835,-0.192 0.2855,-0.1843 0.2885,-0.177C0.2915,-0.1697 0.2962,-0.1632 0.3025,-0.1575C0.3088,-0.1518 0.316,-0.149 0.324,-0.149Z" style="fill:rgb(48,80,64);fill-rule:nonzero;"/></g></g><g transform="matrix(1.104225,0,0,1.104225,363.812207,-33.765258)"><rect x="100" y="-53.4014" width="442.1769" height="1043.5374" style="fill:white;fill-opacity:0;"/><g transform="matrix(884.353741,0,0,884.353741,100,800)"><path d="M0.436,0.07L0.064,0.07L0.064,-0.095L0.138,-0.095L0.138,-0L0.362,-0L0.362,-0.095L0.436,-0.095L0.436,0.07Z" style="fill:rgb(48,80,64);fill-rule:nonzero;"/></g></g></g></svg>